<svg width="100" height="100" viewBox="0 0 100 100" fill="none" xmlns="http://www.w3.org/2000/svg">
<path d="M0 50C0 22.3858 22.3858 0 50 0V0C77.6142 0 100 22.3858 100 50V50C100 77.6142 77.6142 100 50 100V100C22.3858 100 0 77.6142 0 50V50Z" fill="#B1244A"/>
<path d="M28 29.5857C28 24.5945 32.5204 20.8219 37.4311 21.7147L42.8446 22.699C47.5761 23.5593 52.4239 23.5593 57.1554 22.699L62.5689 21.7147C67.4796 20.8219 72 24.5945 72 29.5857V40C72 42.2091 70.2091 44 68 44H32C29.7909 44 28 42.2091 28 40V29.5857Z" fill="#FC6F95"/>
<rect x="13" y="47" width="74" height="4" rx="2" fill="#FC6F95"/>
<rect x="43" y="62" width="14" height="4" rx="2" fill="#FC6F95"/>
<path d="M45.1779 66.9895C47.6074 64.4755 47.6074 60.3995 45.1779 57.8855C42.7483 55.3715 38.8093 55.3715 36.3798 57.8855L35.5 58.7959L34.6202 57.8855C32.1907 55.3715 28.2517 55.3715 25.8221 57.8855C23.3926 60.3995 23.3926 64.4755 25.8221 66.9895L33.8439 75.2902C34.7585 76.2366 36.2415 76.2366 37.1561 75.2902L45.1779 66.9895Z" fill="#FC6F95"/>
<path d="M73.1779 66.9895C75.6074 64.4755 75.6074 60.3995 73.1779 57.8855C70.7483 55.3715 66.8093 55.3715 64.3798 57.8855L63.5 58.7959L62.6202 57.8855C60.1907 55.3715 56.2517 55.3715 53.8221 57.8855C51.3926 60.3995 51.3926 64.4755 53.8221 66.9895L61.8439 75.2902C62.7585 76.2366 64.2415 76.2366 65.1561 75.2902L73.1779 66.9895Z" fill="#FC6F95"/>
</svg>
