<svg width="12" height="18" viewBox="0 0 12 18" fill="none" xmlns="http://www.w3.org/2000/svg">
<path d="M10.6086 5.19174C11.5942 4.2062 11.5942 2.60832 10.6086 1.62277C9.62307 0.63723 8.02519 0.63723 7.03965 1.62277L1.48792 7.1745C0.502374 8.16004 0.502374 9.75792 1.48792 10.7435C2.47346 11.729 4.07134 11.729 5.05688 10.7435L10.6086 5.19174Z" fill="#FC6F95"/>
<path d="M7.03964 16.2952C8.02519 17.2807 9.62307 17.2807 10.6086 16.2952C11.5942 15.3097 11.5942 13.7118 10.6086 12.7262L5.05688 7.1745C4.07134 6.18896 2.47346 6.18896 1.48792 7.1745C0.502374 8.16004 0.502374 9.75792 1.48792 10.7435L7.03964 16.2952Z" fill="#FC6F95"/>
</svg>
