<svg width="72" height="61" viewBox="0 0 72 61" fill="none" xmlns="http://www.w3.org/2000/svg">
<path fill-rule="evenodd" clip-rule="evenodd" d="M66.2959 33.5179C73.9014 25.8502 73.9014 13.4184 66.2959 5.75076C58.6905 -1.91692 46.3596 -1.91692 38.7542 5.75076L36 8.52748L33.2458 5.75076C25.6404 -1.91692 13.3095 -1.91692 5.70408 5.75076C-1.90136 13.4184 -1.90136 25.8502 5.70408 33.5179L30.8157 58.835C33.6789 61.7217 38.3211 61.7217 41.1843 58.835L66.2959 33.5179ZM22 30C22 28.3431 23.3431 27 25 27H33V19C33 17.3431 34.3431 16 36 16C37.6569 16 39 17.3431 39 19V27H47C48.6569 27 50 28.3431 50 30C50 31.6569 48.6569 33 47 33H39V41C39 42.6569 37.6569 44 36 44C34.3431 44 33 42.6569 33 41V33H25C23.3431 33 22 31.6569 22 30Z" fill="#5E5E5E"/>
</svg>
