<svg width="80" height="62" viewBox="0 0 80 62" fill="none" xmlns="http://www.w3.org/2000/svg">
<path d="M34 2C34 0.895431 34.8954 0 36 0H43V12H34V2Z" fill="#5E5E5E"/>
<path d="M43 0H48C49.1046 0 50 0.895431 50 2V4C50 5.10457 49.1046 6 48 6H43V0Z" fill="#5E5E5E"/>
<path fill-rule="evenodd" clip-rule="evenodd" d="M0 28C0 19.1634 7.16344 12 16 12H64C72.8366 12 80 19.1634 80 28V58C80 60.2091 78.2091 62 76 62H4C1.79086 62 0 60.2091 0 58V28ZM6 28C6 22.4772 10.4772 18 16 18H18C23.5228 18 28 22.4772 28 28V54C28 55.1046 27.1046 56 26 56H8C6.89543 56 6 55.1046 6 54V28ZM45.9014 28.8851C43.3662 31.3987 43.3662 35.4739 45.9014 37.9875L56 48L66.0986 37.9875C68.6338 35.4739 68.6338 31.3987 66.0986 28.8851C63.5635 26.3716 59.4532 26.3716 56.9181 28.8851L56 29.7954L55.0819 28.8851C52.5468 26.3716 48.4365 26.3716 45.9014 28.8851Z" fill="#5E5E5E"/>
</svg>
